<?xml version="1.0" encoding="utf-8"?>
<!-- Generator: Adobe Illustrator 23.1.0, SVG Export Plug-In . SVG Version: 6.00 Build 0)  -->
<svg version="1.1" id="b4c217a0-9b86-49d5-974d-fd03b0c4b3dd"
	 xmlns="http://www.w3.org/2000/svg" xmlns:xlink="http://www.w3.org/1999/xlink" x="0px" y="0px" viewBox="0 0 1006.8 762"
	 style="enable-background:new 0 0 1006.8 762;" xml:space="preserve">
<style type="text/css">
	.st0{fill:#F2F2F2;}
	.st1{fill:#6C63FF;}
	.st2{fill:#2F2E41;}
	.st3{fill:#3F3D56;}
	.st4{opacity:0.1;enable-background:new    ;}
	.st5{fill:#FBBEBE;}
	.st6{fill:#A0616A;}
	.st7{fill:#57B894;}
</style>
<title>apartment rent</title>
<path class="st0" d="M928.1,327V210h-65v-76h-44v76h-65v117h-36V64h-73V39h-97V14h-96v25h-91v25h-79v262h-42V209h-65v-76h-44v76h-65
	v117h-42v415h96V594h66v147h258V570h112v171h156v1h96V595h66v147h96V327H928.1z M58.6,377h38v30h-38V377z M59.1,461h38v30h-38V461z
	 M97.6,575h-38v-30h38V575z M197.1,304h-88v-18h88V304z M197.1,278h-88v-18h88V278z M197.1,252h-88v-18h88V252z M209.6,377h38v30
	h-38V377z M210.1,461h38v30h-38V461z M248.6,575h-38v-30h38V575z M404.1,525h-70v-31h70V525z M404.1,436h-70v-31h70V436z M404.1,347
	h-70v-31h70V347z M404.1,258h-70v-31h70V258z M404.1,169h-70v-31h70V169z M535.1,525h-70v-31h70V525z M535.1,436h-70v-31h70V436z
	 M535.1,347h-70v-31h70V347z M535.1,258h-70v-31h70V258z M535.1,169h-70v-31h70V169z M666.1,525h-70v-31h70V525z M666.1,436h-70v-31
	h70V436z M666.1,347h-70v-31h70V347z M666.1,258h-70v-31h70V258z M666.1,169h-70v-31h70V169z M746.6,378h38v30h-38V378z M747.1,462
	h38v30h-38V462z M785.6,576h-38v-30h38V576z M885.1,305h-88v-18h88V305z M885.1,279h-88v-18h88V279z M885.1,253h-88v-18h88V253z
	 M897.6,378h38v30h-38V378z M898.1,462h38v30h-38V462z M936.6,576h-38v-30h38V576z"/>
<path class="st1" d="M120,625.7c-0.3,4-0.7,8.4-1.4,13l12.2-13.6l0.1,0.2c-0.7-3.3-2-6.4-3.6-9.3l0.1,0.2L120,625.7z"/>
<path class="st1" d="M120,625l7.2-9.1c-1.5-2.8-3.7-5.1-6.4-6.8c-0.1-0.1-0.3-0.2-0.4-0.2C120.4,609.9,120.6,616.2,120,625z"/>
<path class="st1" d="M113.6,660.8c-0.3,1-0.6,1.9-1,2.8l18-10.6l0,0.3c0.4-1.6,0.7-3.3,0.9-4.9l-18,12.5L113.6,660.8z"/>
<path class="st1" d="M116.1,651.9l16.2-13.4l0,0.3c0.1-4.4-0.4-8.8-1.4-13.1l-12.5,13.8C117.8,643.8,117,648,116.1,651.9z"/>
<path class="st1" d="M118.2,639.2l-19.4-21.6l0.1-0.2c-1.8,2.6-3.4,5.3-4.7,8.2l22.1,23.6C117.2,645.6,117.8,642.3,118.2,639.2z"/>
<path class="st1" d="M94.1,626L94.1,626c0-0.1,0.1-0.2,0.1-0.2L94.1,626z"/>
<path class="st1" d="M93,628.7l-0.1,0.2C92.9,628.8,92.9,628.7,93,628.7L93,628.7z"/>
<path class="st1" d="M116.3,649.7L94.1,626c-0.4,0.9-0.7,1.7-1.1,2.7l22.7,23.5C115.9,651.3,116.1,650.5,116.3,649.7z"/>
<path class="st1" d="M131.6,648.1c0.4-3,0.7-6,0.7-9l-16.4,13.6c-0.7,2.6-1.4,5.2-2.1,7.6l17.8-12.4L131.6,648.1z"/>
<path class="st1" d="M90,649.8l18,23.5c1.5-2.9,2.8-5.8,3.9-8.8L90,641.4c-0.2,2.9-0.2,5.8-0.1,8.7L90,649.8z"/>
<path class="st1" d="M120.1,608.8l0.2-0.1c-3.9-2.1-8.2-1.9-12.3,0.3l11.8,16C120.4,615.5,120.1,608.9,120.1,608.8z"/>
<path class="st1" d="M112,665.2c-1,2.7-2.2,5.4-3.5,7.9l18.1-9.4l0,0.3c1.4-2.3,2.4-4.8,3.2-7.3c0.3-1,0.5-2,0.8-3l-18.2,10.7
	C112.2,664.6,112.1,664.9,112,665.2z"/>
<path class="st1" d="M119.7,625.7l-12.1-16.4l0.1-0.2c-3.4,2-6.4,4.7-8.7,8l19.2,21.5C119,634,119.4,629.6,119.7,625.7z"/>
<path class="st1" d="M112.1,663.9c1.3-3.7,2.5-7.4,3.4-11.2l-22.8-23.6c-0.5,1.5-1,3-1.5,4.6c-0.6,2.3-1,4.6-1.3,7L112.1,663.9
	L112.1,663.9z"/>
<path class="st1" d="M135.5,689.3c-2.7,2.9-5.9,6-9.4,9.1l18.1-2.6l-0.1,0.2c1.5-3,2.6-6.2,3.2-9.5l-0.1,0.2L135.5,689.3z"/>
<path class="st1" d="M146.7,677c-0.1-0.1-0.1-0.3-0.2-0.4c-0.7,0.9-4.5,5.8-10.6,12.2l11.3-2.5C147.9,683.2,147.7,680,146.7,677z"/>
<path class="st1" d="M108.2,712.2c-0.9,0.5-1.7,1.1-2.6,1.6l20.6,3.4l-0.1,0.2c1.3-1,2.6-2.1,3.9-3.2l-21.8-1.8L108.2,712.2z"/>
<path class="st1" d="M115.8,707l21,0l-0.1,0.2c2.9-3.4,5.3-7.1,7.3-11l-18.4,2.7C122.3,701.9,119,704.6,115.8,707z"/>
<path class="st1" d="M108.7,711.9l21.6,1.8l-0.1,0.2c2.2-2,4.3-4.2,6.3-6.5l-21.3,0C113,709.1,110.8,710.5,108.7,711.9z"/>
<path class="st1" d="M82.2,722.6c0.2-0.2,0.3-0.3,0.5-0.5c4.4-0.7,8.7-1.9,12.8-3.7l0.6-15.6c0.2-0.4,0.3-0.8,0.5-1.2L96,718.3
	c3-1.3,5.8-2.7,8.6-4.3l-2-29c0.2-0.1,0.3-0.2,0.5-0.2l2,29l0,0c3.4-2,6.6-4.1,9.8-6.4l-2.2-28.5c0.2-0.1,0.3-0.2,0.5-0.3l2.2,28.5
	c0.7-0.5,1.4-1,2.1-1.6l-1.8-28.9c0.2-0.1,0.3-0.3,0.5-0.4l1.8,28.9c2.8-2.2,5.4-4.4,7.7-6.4l-1.1-29l0.2-0.1
	c-0.8,0.2-1.6,0.5-2.5,0.7c1.6-1.8,3-3.7,4.2-5.7l-18.3,9.5c-1.3,2.4-2.7,4.7-4.3,6.9c-0.3,0.3-0.7,0.6-1,0.9l0,0.3
	c-0.1,0.2-0.3,0.4-0.4,0.6l0-0.5c-0.2,0.2-0.5,0.5-0.7,0.7c2.3-2.9,4.3-6,6.1-9.3l-17.9-23.3c0.1,2.1,0.3,4.2,0.6,6.3
	c-1.7-2.7-3.7-5.2-6-7.3l0.1,0.2l-4.1,11.2c1,3.8,1.9,8.2,2.7,12.8l7.3-16.4c0,0.3,0.1,0.5,0.1,0.8l-7.3,16.4
	c0.7,4.3,1.2,8.5,1.6,12.6l8.8-13.8c0.1,0.2,0.1,0.4,0.2,0.6L85,687.6c0.2,2.7,0.3,5.3,0.3,7.9L96,681.3c0.1,0.2,0.1,0.4,0.2,0.5
	l-10.8,14.3l-0.1-0.1c0,1,0,2-0.1,3l12.1-13.6c0.1,0.2,0.1,0.4,0.2,0.5l-12.3,13.9c0,0.3,0,0.6,0,0.9c-0.1,2.9-0.4,5.8-0.9,8.6
	l1.2-1.2c-0.2,0.5-0.4,0.9-0.6,1.4l-0.7,0.7c-0.1,0.4-0.2,0.9-0.2,1.3c-0.2,0.5-0.5,1.1-0.7,1.6c0.2-1,0.4-2,0.6-3l-24.2-16.6
	c6.3,16.1,18.2,31.5,19,32.5c0.6-1.2,1.2-2.3,1.7-3.6c0.1,0,0.3,0,0.4,0c-0.1,0.1-0.1,0.3-0.2,0.4c-0.1,0-0.2,0-0.2,0
	c0.1,0,0.1,0,0.2,0.1c-0.4,0.8-0.7,1.7-1.1,2.5c0.5-0.5,1.3-1.2,2.3-2.2c5.7,1.5,21,4.6,34.1,0l-20.1-4.4
	C91.3,720.6,86.8,721.9,82.2,722.6z M96.3,697.2l0.5-0.5l0,0.7l-0.5,0.5L96.3,697.2z"/>
<path class="st1" d="M146.3,676.4l0.2,0c-1.7-4.1-5.1-6.7-9.6-7.6l-1.1,19.8C142.3,681.7,146.3,676.4,146.3,676.4z"/>
<path class="st1" d="M104.2,714.6c-2.5,1.4-5.1,2.7-7.8,3.9l19.9,4.3l-0.2,0.2c2.5-0.9,4.9-2.1,7.1-3.6c0.9-0.6,1.7-1.2,2.5-1.8
	l-20.8-3.4C104.7,714.3,104.5,714.5,104.2,714.6z"/>
<path class="st1" d="M126,698.2c3.4-3.1,6.6-6.2,9.3-9l1.2-20.3l0.2-0.1c-3.9-0.7-8-0.4-11.8,0.6L126,698.2z"/>
<path class="st1" d="M84.4,649.2c-2.3-2.2-5.1-3.7-8.2-4.5c-0.1,0-0.3-0.1-0.4-0.1c0.4,1,2.5,7,4.7,15.5L84.4,649.2z"/>
<path class="st1" d="M83,674.1l-25.1-14.6l0-0.3c-0.9,3-1.6,6.1-1.9,9.2l28.3,15.6C84,680.6,83.5,677.2,83,674.1z"/>
<path class="st1" d="M56,669L56,669c0-0.1,0-0.2,0-0.3L56,669z"/>
<path class="st1" d="M55.7,671.9l0,0.3C55.7,672.1,55.7,672,55.7,671.9L55.7,671.9z"/>
<path class="st1" d="M84.4,684.7L56,669c-0.1,0.9-0.2,1.9-0.2,2.9l28.9,15.3C84.5,686.4,84.5,685.5,84.4,684.7z"/>
<path class="st1" d="M84.8,700.1l-28-15.1c0.7,2.8,1.6,5.6,2.6,8.3l0-0.3l24.4,16.8C84.4,706.5,84.7,703.3,84.8,700.1z"/>
<path class="st1" d="M75.4,644.7l0.1-0.1c-4.4-0.8-8.4,0.7-11.6,4l16.2,11.6C77.7,650.9,75.4,644.8,75.4,644.7z"/>
<path class="st1" d="M80.2,660.9L63.7,649l0-0.3c-2.7,3-4.6,6.5-5.8,10.3l24.9,14.5C82.1,668.9,81.2,664.7,80.2,660.9z"/>
<path class="st1" d="M84.8,699.5c0.1-3.9,0.1-7.8-0.2-11.7l-28.9-15.4c-0.1,1.6-0.1,3.2,0,4.8c0.1,2.4,0.4,4.7,1,7L84.8,699.5
	L84.8,699.5z"/>
<path class="st1" d="M976,622.7c-0.3,4-0.7,8.4-1.4,13l12.2-13.6l0.1,0.2c-0.7-3.3-2-6.4-3.6-9.3l0.1,0.2L976,622.7z"/>
<path class="st1" d="M976,622l7.2-9.1c-1.5-2.8-3.7-5.1-6.4-6.8c-0.1-0.1-0.3-0.2-0.4-0.2C976.4,606.9,976.6,613.2,976,622z"/>
<path class="st1" d="M969.6,657.8c-0.3,1-0.6,1.9-1,2.8l18-10.6l0,0.3c0.4-1.6,0.7-3.3,0.9-4.9l-18,12.5L969.6,657.8z"/>
<path class="st1" d="M972.1,648.9l16.2-13.4l0,0.3c0.1-4.4-0.4-8.8-1.4-13.1l-12.5,13.8C973.8,640.8,973,645,972.1,648.9z"/>
<path class="st1" d="M974.2,636.2l-19.4-21.6l0.1-0.2c-1.8,2.6-3.4,5.3-4.7,8.2l22.1,23.6C973.2,642.6,973.8,639.3,974.2,636.2z"/>
<path class="st1" d="M950.1,623L950.1,623c0-0.1,0.1-0.2,0.1-0.2L950.1,623z"/>
<path class="st1" d="M972.3,646.7L950.1,623c-0.4,0.9-0.7,1.7-1.1,2.7l22.7,23.5C971.9,648.3,972.1,647.5,972.3,646.7z"/>
<path class="st1" d="M949,625.7l-0.1,0.2C948.9,625.8,948.9,625.7,949,625.7L949,625.7z"/>
<path class="st1" d="M987.6,645.1c0.4-3,0.7-6,0.7-9l-16.4,13.6c-0.7,2.6-1.4,5.2-2.1,7.6l17.8-12.4L987.6,645.1z"/>
<path class="st1" d="M946,646.8l18,23.5c1.5-2.9,2.8-5.8,3.9-8.8L946,638.4c-0.2,2.9-0.2,5.8-0.1,8.7L946,646.8z"/>
<path class="st1" d="M976.1,605.8l0.2-0.1c-3.9-2.1-8.2-1.9-12.3,0.3l11.8,16C976.4,612.5,976.1,605.9,976.1,605.8z"/>
<path class="st1" d="M968,662.2c-1,2.7-2.2,5.4-3.5,7.9l18.1-9.4l0,0.3c1.4-2.3,2.4-4.8,3.2-7.3c0.3-1,0.5-2,0.8-3l-18.2,10.7
	C968.2,661.6,968.1,661.9,968,662.2z"/>
<path class="st1" d="M975.7,622.7l-12.1-16.4l0.1-0.2c-3.4,2-6.4,4.7-8.7,8l19.2,21.5C975,631,975.4,626.6,975.7,622.7z"/>
<path class="st1" d="M968.1,660.9c1.3-3.7,2.5-7.4,3.4-11.2l-22.8-23.6c-0.5,1.5-1,3-1.5,4.6c-0.6,2.3-1,4.6-1.3,7L968.1,660.9
	L968.1,660.9z"/>
<path class="st1" d="M991.5,686.3c-2.7,2.9-5.9,6-9.4,9.1l18.1-2.6l-0.1,0.2c1.5-3,2.6-6.2,3.2-9.5l-0.1,0.2L991.5,686.3z"/>
<path class="st1" d="M1002.8,674c-0.1-0.1-0.1-0.3-0.2-0.4c-0.7,0.9-4.5,5.8-10.6,12.2l11.3-2.5C1003.9,680.2,1003.7,677,1002.8,674
	z"/>
<path class="st1" d="M964.2,709.2c-0.9,0.5-1.7,1.1-2.6,1.6l20.6,3.4l-0.1,0.2c1.3-1,2.6-2.1,3.9-3.2l-21.8-1.8L964.2,709.2z"/>
<path class="st1" d="M971.8,704l21,0l-0.1,0.2c2.9-3.4,5.3-7.1,7.3-11l-18.4,2.7C978.3,698.9,975,701.6,971.8,704z"/>
<path class="st1" d="M964.7,708.9l21.6,1.8l-0.1,0.2c2.2-2,4.3-4.2,6.3-6.5l-21.3,0C969,706.1,966.8,707.5,964.7,708.9z"/>
<path class="st1" d="M938.2,719.6c0.2-0.2,0.3-0.3,0.5-0.5c4.4-0.7,8.7-1.9,12.8-3.7l0.6-15.6c0.2-0.4,0.3-0.8,0.5-1.2l-0.6,16.6
	c3-1.3,5.8-2.7,8.6-4.3l-2-29c0.2-0.1,0.3-0.2,0.5-0.2l2,29l0,0c3.4-2,6.6-4.1,9.8-6.4l-2.2-28.5c0.2-0.1,0.3-0.2,0.5-0.3l2.2,28.5
	c0.7-0.5,1.4-1,2.1-1.6l-1.8-28.9c0.2-0.1,0.3-0.3,0.5-0.4l1.8,28.9c2.8-2.2,5.4-4.4,7.7-6.4l-1.1-29l0.2-0.1
	c-0.8,0.2-1.6,0.5-2.5,0.7c1.6-1.8,3-3.7,4.2-5.7l-18.3,9.5c-1.3,2.4-2.7,4.7-4.3,6.9c-0.3,0.3-0.7,0.6-1,0.9l0,0.3
	c-0.1,0.2-0.3,0.4-0.4,0.6l0-0.5c-0.2,0.2-0.5,0.5-0.7,0.7c2.3-2.9,4.3-6,6.1-9.3l-17.9-23.3c0.1,2.1,0.3,4.2,0.6,6.3
	c-1.7-2.7-3.7-5.2-6-7.3l0.1,0.2l-4.1,11.2c1,3.8,1.9,8.2,2.7,12.8l7.3-16.4c0,0.3,0.1,0.5,0.1,0.8l-7.3,16.4
	c0.7,4.3,1.2,8.5,1.6,12.6l8.8-13.8c0.1,0.2,0.1,0.4,0.2,0.6l-8.9,13.9c0.2,2.7,0.3,5.3,0.3,7.9l10.7-14.2c0.1,0.2,0.1,0.4,0.2,0.5
	l-10.8,14.3l-0.1-0.1c0,1,0,2-0.1,3l12.1-13.6c0.1,0.2,0.1,0.4,0.2,0.5l-12.3,13.9c0,0.3,0,0.6,0,0.9c-0.1,2.9-0.4,5.8-0.9,8.6
	l1.2-1.2c-0.2,0.5-0.4,0.9-0.6,1.4l-0.7,0.7c-0.1,0.4-0.2,0.9-0.2,1.3c-0.2,0.5-0.5,1.1-0.7,1.6c0.2-1,0.4-2,0.6-3l-24.2-16.6
	c6.3,16.1,18.2,31.5,19,32.5c0.6-1.2,1.2-2.3,1.7-3.6c0.1,0,0.3,0,0.4,0c-0.1,0.1-0.1,0.3-0.2,0.4c-0.1,0-0.2,0-0.2,0
	c0.1,0,0.1,0,0.2,0.1c-0.4,0.8-0.7,1.7-1.1,2.5c0.5-0.5,1.3-1.2,2.3-2.2c5.7,1.5,21,4.6,34.1,0l-20.1-4.4
	C947.3,717.6,942.8,718.9,938.2,719.6z M952.3,694.2l0.5-0.5l0,0.7l-0.5,0.5L952.3,694.2z"/>
<path class="st1" d="M1002.3,673.4l0.2,0c-1.7-4.1-5.1-6.7-9.6-7.6l-1.1,19.8C998.3,678.7,1002.3,673.4,1002.3,673.4z"/>
<path class="st1" d="M960.2,711.6c-2.5,1.4-5.1,2.7-7.8,3.9l19.9,4.3l-0.2,0.2c2.5-0.9,4.9-2.1,7.1-3.6c0.9-0.6,1.7-1.2,2.5-1.8
	l-20.8-3.4C960.7,711.3,960.5,711.5,960.2,711.6z"/>
<path class="st1" d="M982,695.2c3.4-3.1,6.6-6.2,9.3-9l1.2-20.3l0.2-0.1c-3.9-0.7-8-0.4-11.8,0.6L982,695.2z"/>
<path class="st1" d="M940.4,646.2c-2.3-2.2-5.1-3.7-8.2-4.5c-0.1,0-0.3-0.1-0.4-0.1c0.4,1,2.5,7,4.7,15.5L940.4,646.2z"/>
<path class="st1" d="M939,671.1l-25.1-14.6l0-0.3c-0.9,3-1.6,6.1-1.9,9.2l28.3,15.6C940,677.6,939.5,674.2,939,671.1z"/>
<path class="st1" d="M911.7,668.9l0,0.3C911.7,669.1,911.7,669,911.7,668.9L911.7,668.9z"/>
<path class="st1" d="M912,666L912,666c0-0.1,0-0.2,0-0.3L912,666z"/>
<path class="st1" d="M940.4,681.7L912,666c-0.1,0.9-0.2,1.9-0.2,2.9l28.9,15.3C940.5,683.4,940.5,682.5,940.4,681.7z"/>
<path class="st1" d="M940.8,697.1l-28-15.1c0.7,2.8,1.6,5.6,2.6,8.3l0-0.3l24.4,16.8C940.4,703.5,940.7,700.3,940.8,697.1z"/>
<path class="st1" d="M931.4,641.7l0.1-0.1c-4.4-0.8-8.4,0.7-11.6,4l16.2,11.6C933.7,647.9,931.4,641.8,931.4,641.7z"/>
<path class="st1" d="M936.2,657.9L919.7,646l0-0.3c-2.7,3-4.6,6.5-5.8,10.3l24.9,14.5C938.1,665.9,937.2,661.7,936.2,657.9z"/>
<path class="st1" d="M940.8,696.5c0.1-3.9,0.1-7.8-0.2-11.7l-28.9-15.4c-0.1,1.6-0.1,3.2,0,4.8c0.1,2.4,0.4,4.7,1,7L940.8,696.5
	L940.8,696.5z"/>
<path class="st2" d="M53.4,724.5h946l0,0V738c0,11.9-9.6,21.5-21.5,21.5h0H74.8c-11.9,0-21.5-9.6-21.5-21.5c0,0,0,0,0,0V724.5
	L53.4,724.5z"/>
<rect x="53.4" y="716" class="st3" width="946" height="19"/>
<path class="st0" d="M794,66l10.9,6.9l-6.6-12c1.9-1.5,4.2-2.3,6.6-2.3c0.1,0,0.1,0,0.2,0c0.8,0,1.5,0,2.3-0.2l3.7,2.3l-1.6-2.9
	c2.6-0.9,4.9-2.6,6.4-4.9l6.6,4.2l-4.2-7.6c3.9-4.6,9-7.5,14.8-7.5c6.9,0,13,4.1,16.9,10.4c2.4,3.9,6.6,6.2,11.2,6
	c0.1,0,0.2,0,0.4,0c7.6,0,13.7,8.6,13.7,19.2s-6.1,19.2-13.7,19.2c-1.7,0-3.3-0.4-4.8-1.2c-5.2-2.5-11.3-2.7-16.6-0.3
	c-4.5,2-9.6,2-14.1,0c-5.3-2.3-11.3-2.2-16.4,0.3c-1.5,0.8-3.1,1.2-4.7,1.2c-7.6,0-13.7-8.6-13.7-19.2C791.1,73.6,792,69.6,794,66z"
	/>
<path class="st0" d="M241.2,122.2l6.9,4.4l-4.2-7.6c1.2-0.9,2.7-1.5,4.2-1.5c0,0,0.1,0,0.1,0c0.5,0,1,0,1.4-0.1l2.3,1.5l-1-1.8
	c1.7-0.6,3.1-1.7,4.1-3.1l4.2,2.7l-2.6-4.8c2.3-2.9,5.7-4.7,9.4-4.7c4.4,0,8.2,2.6,10.7,6.6c1.5,2.5,4.2,3.9,7.1,3.8
	c0.1,0,0.2,0,0.2,0c4.8,0,8.7,5.5,8.7,12.2s-3.9,12.2-8.7,12.2c-1.1,0-2.1-0.3-3-0.8c-3.3-1.6-7.2-1.7-10.5-0.2
	c-2.9,1.3-6.1,1.3-9,0c-3.3-1.5-7.2-1.4-10.5,0.2c-0.9,0.5-2,0.7-3,0.7c-4.8,0-8.7-5.5-8.7-12.2C239.3,127.1,240,124.5,241.2,122.2z
	"/>
<path class="st0" d="M55.2,145.7l6.9,4.4l-4.2-7.6c1.2-0.9,2.7-1.5,4.2-1.5c0,0,0.1,0,0.1,0c0.5,0,1,0,1.4-0.1l2.3,1.5l-1-1.8
	c1.7-0.6,3.1-1.7,4.1-3.1l4.2,2.7l-2.6-4.8c2.3-2.9,5.7-4.7,9.4-4.7c4.4,0,8.2,2.6,10.7,6.6c1.5,2.5,4.2,3.9,7.1,3.8
	c0.1,0,0.2,0,0.2,0c4.8,0,8.7,5.5,8.7,12.2s-3.9,12.2-8.7,12.2c-1.1,0-2.1-0.3-3-0.8c-3.3-1.6-7.2-1.7-10.5-0.2
	c-2.9,1.3-6.1,1.3-9,0c-3.3-1.5-7.2-1.4-10.5,0.2c-0.9,0.5-2,0.7-3,0.7c-4.8,0-8.7-5.5-8.7-12.2C53.3,150.6,54,148,55.2,145.7z"/>
<path class="st1" d="M304.7,596.9l-1.2,1.2c0,0,0.4,13.3,0.8,16.1c0.4,2.8,2,7.6,0.8,11.3s-1.6,6.4-1.2,6.8s-0.4,2-0.4,2l3.2-2
	l5.2-12.1l-2.4-12.9L304.7,596.9z"/>
<path class="st4" d="M304.7,596.9l-1.2,1.2c0,0,0.4,13.3,0.8,16.1c0.4,2.8,2,7.6,0.8,11.3s-1.6,6.4-1.2,6.8s-0.4,2-0.4,2l3.2-2
	l5.2-12.1l-2.4-12.9L304.7,596.9z"/>
<path class="st1" d="M326,722c0,0,0-4.4-0.8-5.2s-2-3.6-3.6-3.6s-7.2,1.6-7.2,2c0,1.3-0.2,2.5-0.8,3.6c-0.8,1.2-5.2,6-0.8,6.8
	c3,0.5,6-0.2,8.4-2c0.4-0.4,2-0.8,2.4-0.4C324,723.6,326,722,326,722z"/>
<path class="st1" d="M337.3,714.8l2.4,4.4c0,0,0.8,4,2,4.4h1.2c0,0,1.2,4.4,4,4s6-2,6-2.8s0-3.2-1.2-4c-1.7-1.4-3.3-2.9-4.8-4.4
	l-2-2L337.3,714.8z"/>
<path class="st2" d="M306.4,567.4c-1.6,0.8-2.7,2.3-2.9,4.1c-0.2,2.9,2.6,5.6,1.7,8.3c-0.5,1.6-2.1,2.6-2.6,4.1
	c-0.2,1.3-0.1,2.5,0.5,3.7c0.6,1.6,1.4,3.1,2.3,4.5c1.7,2.7,3.9,5.2,4.4,8.3c0.3,1.1,0,2.3-0.8,3.1c0.8-0.6,1.8-1.1,2.7-1.3
	c4.1-1.4,7.9-3.5,11.3-6.3c1.2-0.9,2.1-2.1,2.6-3.5c0.6-2.5-1.3-4.9-1.1-7.5c0.1-1.6,1.1-3.1,1.6-4.6c0.9-3.1,0.6-6.4-1-9.3
	c-1.3-2.7-3.7-4.8-6.6-5.7c-2.2-0.5-4.5-0.4-6.6,0.2C310,565.9,308.2,566.5,306.4,567.4z"/>
<path class="st1" d="M308.7,589.7c1.8-3.4,5.3-5.5,9.1-5.5c6.4,0,5.2-0.4,5.2-0.4l-2,8l-4,4L308.7,589.7z"/>
<path class="st5" d="M310.4,581.2c0,0,3.6,6,1.2,8.4c-2.4,2.4-1.2,4.8-0.8,5.2c0.4,0.4,11.7,1.2,11.7,1.2l0.4-5.6l1.2-4.8
	c0,0-6.4-1.2-5.6-4S310.4,581.2,310.4,581.2z"/>
<path class="st4" d="M310.4,581.2c0,0,3.6,6,1.2,8.4c-2.4,2.4-1.2,4.8-0.8,5.2c0.4,0.4,11.7,1.2,11.7,1.2l0.4-5.6l1.2-4.8
	c0,0-6.4-1.2-5.6-4S310.4,581.2,310.4,581.2z"/>
<path class="st5" d="M338.5,638.3c-0.4,1.4-1,2.7-1.6,4c-0.4,0.4-1.6-2.8-1.6-2.8l1.2-2.8L338.5,638.3z"/>
<polygon class="st5" points="333.9,620 335.5,629.3 311.4,629.3 312.6,620 "/>
<circle class="st5" cx="314.8" cy="576.7" r="7.6"/>
<path class="st1" d="M316.4,592.4c0,0-4.4,0.4-4.4-0.4s-0.4-3.2-1.2-2.8s-6,0.8-5.6,2c0.4,1.2,1.2,3.6,0.4,3.6
	c-1.4,0.3-2.3,1.7-2,3.1c0,0,0,0.1,0,0.1c0.4,2,4.8,14.1,4.8,14.1s0.4,4,1.6,5.2c1,1.3,1,3.1,0,4.4c-0.8,0.8,2,1.6,3.2,3.2
	c1.2,1.6,10.5,0.4,10.9,0c0.4-0.4,10.1-0.4,10.9-1.2s-0.4-3.2-0.4-3.2s-0.4-3.6,0-4.8c0.4-1.2-1.6-20.9-2.8-22.1s3.6-4.8,3.6-4.8
	s-0.8-3.2-6-3.6c0,0-1.6-2.4-3.2-2.4c-1.6,0-5.1,1.9-5.1,1.9s-0.9,5.4-2.1,5.8C317.8,590.9,317,591.6,316.4,592.4z"/>
<path class="st1" d="M332.5,587.6l2.8,1.2c0,0,8,24.9,7.2,29.8s-2.8,21.3-4,21.3c-1.2,0-3.6-2.4-3.6-2.4v-4c0-0.8-1.2-3.2-0.4-3.2
	s2-0.8,1.2-1.6c-0.8-0.8-1.6-2-0.8-3.2c0.8-1.2,1.2-1.6,0.8-2.8c-0.4-1.2-1.2-2.4-0.4-3.2s-2-4.8-2-4.8l-4.4-17.7l0.8-7.2
	L332.5,587.6z"/>
<path class="st2" d="M334.1,625.8c0,0-15.3-1.2-17.3-1.2c-2,0-6.5-1.9-6.5-1.9s-11.6,11.6-7.6,30.5s4.8,42.2,7.2,49.1
	c1.6,4.9,3,9.8,4,14.9c0,0,4-7.2,11.7,0.8c0,0,0.8-6-0.4-8.4c-1.2-2.4-2.8-15.3-2.8-15.3s-2.8-20.5-2.8-22.9s-1.6-22.9-1.2-23.3
	c0.4-0.4,2.4,15.7,2.8,18.5c0.4,2.8,1.6,24.5,2.8,27c1.2,2.4,6.8,21.7,10.1,22.9c3.2,1.2,14.1-0.4,13.7-1.2s-3.2-5.2-4-6.4l-3.2-4.8
	l-7.6-26.2l3.6-31.8C336.5,646,338.5,625.4,334.1,625.8z"/>
<path class="st2" d="M319.4,575.7h-9.8c-0.9,0-1.6-0.6-1.7-1.5l-1-6.2h15.3l-1.4,6.5C320.7,575.3,320.1,575.7,319.4,575.7z"/>
<path class="st2" d="M824.7,573.8h15.5l0,0v22.1l0,0l0,0c-8.5,0-15.5-6.9-15.5-15.5l0,0V573.8L824.7,573.8z"/>
<polygon class="st6" points="815.7,703.3 814.6,708.8 822.3,708.8 822.7,703.3 "/>
<path class="st1" d="M815.7,707.7c0,0-1.5-1.1-2.2-0.4s-3.3,15.1-3.7,15.5s-11.4,5.9-8.8,6.3s12.5,0.7,14,0s5.5-7.7,5.5-7.7v6.3h0.7
	c0,0,0.7-6.6,2.6-8.5s-1.5-8.1-1.5-8.1s0.7-4.1,0.4-4.1S815.7,707.7,815.7,707.7z"/>
<polygon class="st6" points="838.5,699.4 837.4,705 845.2,705 845.5,699.4 "/>
<path class="st2" d="M829.7,663.5c0,0,3.7,11,4.4,12.2s3.3,21.7,3.3,21.7s-2.6,4.1,0.7,4.4s1.8-0.7,4.1,0c1.2,0.5,2.6,0.3,3.7-0.4
	c0,0,1.1-2.2,0.4-2.9s0.7-19.9,0.7-19.9l-2.2-6.6l-1.8-21c0,0,2.2-5.5,1.1-7s-4.8,1.1-4.8,1.1L829.7,663.5z"/>
<path class="st2" d="M824.9,634.8c0,0-1.1,11.8-1.8,12.5s-8.8,21.4-8.8,21.4s-2.2,2.6-1.5,12.2s2.6,19.2,2.6,19.2s-1.5,5.5,1.1,5.5
	s3.7-1.5,4.8-0.4s1.8,0,2.2-0.7s1.8-3.3,1.8-4.1s1.5-19.5,1.5-19.5s12.2-26.9,13.3-28.4s7.4-9.6,7-15.1L824.9,634.8z"/>
<circle class="st6" cx="834.1" cy="577.3" r="7.7"/>
<path class="st6" d="M832.6,584c0,0,2.9,6.6,3.3,8.5s7.4-3.7,7.4-3.7s-3.7-6.3-2.6-9.2L832.6,584z"/>
<path class="st3" d="M844.4,587.6c0,0-5.5-4.1-9.6,4.4s-5.2,8.1-5.2,8.1s-4.8,1.5-3.3,11.8s-4.8,23.9-2.2,24.7s26.5,4.8,26.5,1.8
	s-2.2-14.4-0.4-21.4S847.7,585.8,844.4,587.6z"/>
<path class="st3" d="M838.9,589.5c0,0-4.4,6.6-4.1,11.8s0.4,8.5,0.4,8.5s-7.4,35.4-5.9,35.4s5.9,1.8,6.3,0.7s9.6-23.6,9.6-23.6
	s2.2-22.5-0.4-27.6S838.9,589.5,838.9,589.5z"/>
<path class="st6" d="M830.1,644c0,0-3.7,12.5,1.5,12.9s2.2-12.2,2.2-12.2L830.1,644z"/>
<path class="st1" d="M839.9,702.1c0,0-1.3-1-1.9-0.3s-2.9,13.2-3.2,13.5s-10,5.2-7.7,5.5s11,0.6,12.3,0s4.8-6.8,4.8-6.8v5.5h0.6
	c0,0,0.6-5.8,2.3-7.4s-1.3-7.1-1.3-7.1s0.6-3.5,0.3-3.5S839.9,702.1,839.9,702.1z"/>
<path class="st2" d="M830.3,572.3c0.2-0.3,0.6-0.5,0.9-0.7c0.3-0.1,0.7,0,1,0.1c2.3,0.7,4.3,2.1,5.7,4.1c0.3,0.5,0.7,0.9,1.1,1.2
	c0.3,0.1,0.6,0.2,0.9,0.4c0.9,0.6,0.3,1.9-0.1,2.8c-1.3,2.3-1.9,5-1.7,7.6c0,0.5,0.1,0.9,0.4,1.3c0.4,0.4,1,0.6,1.5,0.6
	c1.8,0.2,3.6,0.3,5.4,0.3c1.8,0,3.7-0.3,4.9-1.6c1.2-1.4,1-3.7,0.2-5.4s-2.1-3.2-3-4.8c-0.9-1.7-1.6-3.6-2.1-5.5
	c-0.6-2.4-1.7-4.7-3-6.8c-1.4-2.1-3.6-3.5-6.1-3.9c-3.3-0.4-6.4,1.7-9.1,3.7c-3,2.3-6.2,5.1-6.5,8.9c-0.2,3.1,1.6,5.8,2.6,8.7
	c1.5,4.5,0.9,9.4,0.2,14.1c2.7-1.6,5.8-3.9,5.6-7.1c-0.1-2.1-1.7-3.9-2.7-5.7C823.6,579.3,826.8,575.8,830.3,572.3z"/>
<path class="st3" d="M939,609.9c2.3-4.1,3.5-8.7,3.5-13.4c0-12.1-7.5-22-16.8-22s-16.8,9.8-16.8,22c0,4.7,1.2,9.3,3.5,13.4
	c-4.7,8.3-4.7,18.5,0,26.9c-4.7,8.3-4.7,18.5,0,26.9c-4.7,8.3-4.7,18.5,0,26.9c-2.3,4.1-3.5,8.7-3.5,13.4c0,12.1,7.5,22,16.8,22
	s16.8-9.8,16.8-22c0-4.7-1.2-9.3-3.5-13.4c4.7-8.3,4.7-18.5,0-26.9c4.7-8.3,4.7-18.5,0-26.9C943.7,628.4,943.7,618.3,939,609.9z"/>
<ellipse class="st3" cx="925.8" cy="569.6" rx="16.8" ry="22"/>
<ellipse class="st3" cx="925.8" cy="542.8" rx="16.8" ry="22"/>
<path class="st0" d="M988.6,359c2.3-2.9,4.4-6,6.3-9.2l-44.1-7.2l47.7,0.4c9.2-20.1,9.8-43.2,1.5-63.7l-64,33.2l59-43.4
	c-22.2-38.4-71.4-51.6-109.9-29.3c-38.4,22.2-51.6,71.4-29.3,109.9c1.9,3.3,4,6.4,6.4,9.4c-3.6,4.5-6.6,9.5-9.2,14.7l57.3,29.7
	l-61-20.5c-8.7,25.7-3.8,54.1,13,75.5c-27.5,34.9-21.4,85.5,13.5,112.9c34.9,27.5,85.5,21.4,112.9-13.5c22.9-29.2,22.9-70.3,0-99.4
	C1011.5,429.2,1011.5,388.1,988.6,359L988.6,359z"/>
<path class="st0" d="M845,408.7c0,18,6,35.6,17.2,49.7c-27.5,34.9-21.4,85.5,13.5,112.9c34.9,27.5,85.5,21.4,112.9-13.5
	c22.9-29.2,22.9-70.3,0-99.4C999.4,444.7,845,399.7,845,408.7z"/>
<path class="st7" d="M988.6,359c2.3-2.9,4.4-6,6.3-9.2l-44.1-7.2l47.7,0.4c9.2-20.1,9.8-43.2,1.5-63.7l-64,33.2l59-43.4
	c-22.2-38.4-71.4-51.6-109.9-29.3c-38.4,22.2-51.6,71.4-29.3,109.9c1.9,3.3,4,6.4,6.4,9.4c-3.6,4.5-6.6,9.5-9.2,14.7l57.3,29.7
	l-61-20.5c-8.7,25.7-3.8,54.1,13,75.5c-27.5,34.9-21.4,85.5,13.5,112.9c34.9,27.5,85.5,21.4,112.9-13.5c22.9-29.2,22.9-70.3,0-99.4
	C1011.5,429.2,1011.5,388.1,988.6,359L988.6,359z"/>
<path class="st4" d="M845,408.7c0,18,6,35.6,17.2,49.7c-27.5,34.9-21.4,85.5,13.5,112.9c34.9,27.5,85.5,21.4,112.9-13.5
	c22.9-29.2,22.9-70.3,0-99.4C999.4,444.7,845,399.7,845,408.7z"/>
<path class="st3" d="M94,609.9c2.3-4.1,3.5-8.7,3.5-13.4c0-12.1-7.5-22-16.8-22s-16.8,9.8-16.8,22c0,4.7,1.2,9.3,3.5,13.4
	c-4.7,8.3-4.7,18.5,0,26.9c-4.7,8.3-4.7,18.5,0,26.9c-4.7,8.3-4.7,18.5,0,26.9c-2.3,4.1-3.5,8.7-3.5,13.4c0,12.1,7.5,22,16.8,22
	s16.8-9.8,16.8-22c0-4.7-1.2-9.3-3.5-13.4c4.7-8.3,4.7-18.5,0-26.9c4.7-8.3,4.7-18.5,0-26.9C98.7,628.4,98.7,618.3,94,609.9z"/>
<ellipse class="st3" cx="80.8" cy="569.6" rx="16.8" ry="22"/>
<ellipse class="st3" cx="80.8" cy="542.8" rx="16.8" ry="22"/>
<path class="st0" d="M143.6,359c2.3-2.9,4.4-6,6.3-9.2l-44.1-7.2l47.7,0.4c9.2-20.1,9.8-43.2,1.5-63.7l-64,33.2l59-43.4
	c-22.2-38.4-71.4-51.6-109.9-29.3s-51.6,71.4-29.3,109.9c1.9,3.3,4,6.4,6.4,9.4c-3.6,4.5-6.6,9.5-9.2,14.7l57.3,29.7l-61-20.5
	c-8.7,25.7-3.8,54.1,13,75.5c-27.5,34.9-21.4,85.5,13.5,112.9c34.9,27.5,85.5,21.4,112.9-13.5c22.9-29.2,22.9-70.3,0-99.4
	C166.5,429.2,166.5,388.1,143.6,359L143.6,359z"/>
<path class="st0" d="M0,408.7c0,18,6,35.6,17.2,49.7c-27.5,34.9-21.4,85.5,13.5,112.9c34.9,27.5,85.5,21.4,112.9-13.5
	c22.9-29.2,22.9-70.3,0-99.4C154.4,444.7,0,399.7,0,408.7z"/>
<path class="st7" d="M143.6,359c2.3-2.9,4.4-6,6.3-9.2l-44.1-7.2l47.7,0.4c9.2-20.1,9.8-43.2,1.5-63.7l-64,33.2l59-43.4
	c-22.2-38.4-71.4-51.6-109.9-29.3s-51.6,71.4-29.3,109.9c1.9,3.3,4,6.4,6.4,9.4c-3.6,4.5-6.6,9.5-9.2,14.7l57.3,29.7l-61-20.5
	c-8.7,25.7-3.8,54.1,13,75.5c-27.5,34.9-21.4,85.5,13.5,112.9c34.9,27.5,85.5,21.4,112.9-13.5c22.9-29.2,22.9-70.3,0-99.4
	C166.5,429.2,166.5,388.1,143.6,359L143.6,359z"/>
<path class="st4" d="M0,408.7c0,18,6,35.6,17.2,49.7c-27.5,34.9-21.4,85.5,13.5,112.9c34.9,27.5,85.5,21.4,112.9-13.5
	c22.9-29.2,22.9-70.3,0-99.4C154.4,444.7,0,399.7,0,408.7z"/>
</svg>
