<?xml version="1.0" encoding="utf-8"?>
<!-- Generator: Adobe Illustrator 23.1.0, SVG Export Plug-In . SVG Version: 6.00 Build 0)  -->
<svg version="1.1" id="color" xmlns="http://www.w3.org/2000/svg" xmlns:xlink="http://www.w3.org/1999/xlink" x="0px" y="0px"
	 viewBox="0 0 1808.8 512" style="enable-background:new 0 0 1808.8 512;" xml:space="preserve">
<style type="text/css">
	.st0{fill:#18BC9C;}
	.st1{fill:#189E84;}
	.st2{fill:#198E77;}
	.st3{fill:#126B5A;}
	.st4{fill:#FFFFFF;}
	.st5{fill:#DEDEDE;}
	.st6{fill:#FDFEFF;}
	.st7{fill:#B5B5B5;}
	.st8{fill:none;}
	.st9{fill:#FFFFFF;stroke:#FFFFFF;stroke-miterlimit:10;}
	.st10{font-family:'MyriadHebrew-Regular';}
	.st11{font-size:350px;}
	.st12{letter-spacing:5;}
</style>
<path class="st0" d="M325.3,512H58.7C26.3,512,0,485.7,0,453.3V122.7C0,90.3,26.3,64,58.7,64h266.7c32.4,0,58.7,26.3,58.7,58.7
	v330.7C384,485.7,357.7,512,325.3,512z"/>
<path class="st1" d="M261.3,128H122.7c-20.6,0-37.3-16.7-37.3-37.3v-32c0-8.8,7.2-16,16-16h34.2C142.5,18.1,165.2,0,192,0
	s49.5,18.1,56.4,42.7h34.2c8.8,0,16,7.2,16,16v32C298.7,111.3,281.9,128,261.3,128z"/>
<path class="st2" d="M85.3,64H58.7C26.3,64,0,90.3,0,122.7v330.7C0,485.7,26.3,512,58.7,512H192V128h-69.3
	c-20.6,0-37.3-16.7-37.3-37.3V64z"/>
<path class="st3" d="M192,0c-26.8,0-49.5,18.1-56.4,42.7h-34.2c-8.8,0-16,7.2-16,16V64v26.7c0,20.6,16.7,37.3,37.3,37.3H192V0z"/>
<g>
	<path class="st4" d="M304,224H80c-8.8,0-16-7.2-16-16c0-8.8,7.2-16,16-16h224c8.8,0,16,7.2,16,16C320,216.8,312.8,224,304,224z"/>
	<path class="st4" d="M304,288H80c-8.8,0-16-7.2-16-16c0-8.8,7.2-16,16-16h224c8.8,0,16,7.2,16,16C320,280.8,312.8,288,304,288z"/>
	<path class="st4" d="M304,352H80c-8.8,0-16-7.2-16-16c0-8.8,7.2-16,16-16h224c8.8,0,16,7.2,16,16C320,344.8,312.8,352,304,352z"/>
	<path class="st4" d="M304,416H80c-8.8,0-16-7.2-16-16c0-8.8,7.2-16,16-16h224c8.8,0,16,7.2,16,16C320,408.8,312.8,416,304,416z"/>
</g>
<path class="st5" d="M192,192H80c-8.8,0-16,7.2-16,16c0,8.8,7.2,16,16,16h112V192z"/>
<path class="st5" d="M192,256H80c-8.8,0-16,7.2-16,16c0,8.8,7.2,16,16,16h112V256z"/>
<path class="st5" d="M192,320H80c-8.8,0-16,7.2-16,16c0,8.8,7.2,16,16,16h112V320z"/>
<path class="st5" d="M192,384H80c-8.8,0-16,7.2-16,16c0,8.8,7.2,16,16,16h112V384z"/>
<path class="st6" d="M469.3,448c-4,0-7.7-2.3-9.5-5.9l-27.5-55c-3.7-7.4-5.6-15.6-5.6-23.9V170.7c0-23.5,19.1-42.7,42.7-42.7
	s42.7,19.1,42.7,42.7v192.6c0,8.2-1.9,16.5-5.6,23.9v0l-27.5,55C477.1,445.7,473.4,448,469.3,448L469.3,448z M496.8,382.3h0.2H496.8
	z"/>
<path class="st7" d="M469.3,128c-23.5,0-42.7,19.1-42.7,42.7v192.6c0,8.2,1.9,16.5,5.6,23.9l27.5,55c1.8,3.6,5.5,5.9,9.5,5.9V128z"
	/>
<rect x="545.2" y="128" class="st8" width="1231.2" height="272"/>
<text transform="matrix(1 0 0 1 545.1606 376.497)"><tspan x="0" y="0" class="st9 st10 st11 st12">SSNote</tspan><tspan x="1092.6" y="0" class="st9 st10 st11">s</tspan></text>
</svg>
